<?xml version="1.0" standalone="no"?>
<!DOCTYPE svg PUBLIC "-//W3C//DTD SVG 20010904//EN"
 "http://www.w3.org/TR/2001/REC-SVG-20010904/DTD/svg10.dtd">
<svg version="1.0" xmlns="http://www.w3.org/2000/svg"
 width="688.000000pt" height="688.000000pt" viewBox="0 0 688.000000 688.000000"
 preserveAspectRatio="xMidYMid meet">
<metadata>
Created by potrace 1.11, written by Peter Selinger 2001-2013
</metadata>
<g transform="translate(0.000000,688.000000) scale(0.100000,-0.100000)"
fill="#000000" stroke="none">
<path d="M3449 6366 c-2 -2 -38 -6 -79 -10 -41 -3 -86 -8 -100 -10 -14 -3 -41
-7 -60 -10 -55 -8 -184 -44 -242 -67 -81 -31 -258 -121 -258 -131 0 -4 -5 -8
-12 -8 -20 0 -155 -108 -240 -193 -71 -70 -160 -180 -205 -252 -72 -114 -160
-323 -179 -425 -3 -14 -9 -44 -15 -67 -28 -129 -30 -424 -2 -503 2 -8 6 -28 8
-45 11 -83 24 -177 34 -232 13 -67 11 -223 -4 -298 -30 -154 -102 -313 -200
-439 -42 -53 -144 -152 -191 -183 -21 -15 -45 -33 -52 -40 -7 -7 -20 -13 -28
-13 -8 0 -14 -4 -14 -9 0 -12 -128 -68 -230 -101 -126 -41 -283 -107 -304
-127 -4 -5 -11 -8 -14 -8 -13 -1 -158 -96 -206 -135 -21 -17 -100 -87 -125
-110 -16 -15 -80 -87 -116 -131 -112 -135 -245 -421 -269 -579 -3 -19 -8 -46
-11 -60 -16 -80 -28 -360 -15 -360 3 0 6 -19 6 -43 5 -120 58 -312 130 -464
38 -80 142 -244 189 -298 94 -107 269 -265 293 -265 6 0 12 -4 14 -8 5 -13
121 -80 200 -116 113 -52 207 -82 348 -112 123 -26 384 -25 525 1 547 103 994
525 1133 1070 6 22 13 56 16 75 3 19 8 46 11 60 3 14 7 60 10 103 3 44 7 83
10 87 3 5 1 11 -4 14 -6 4 -6 18 -1 35 4 16 6 32 4 34 -6 5 -9 27 -19 112 -4
33 -10 71 -12 85 -9 57 -12 77 -17 119 -3 24 -8 51 -10 60 -9 30 -19 126 -21
196 -2 85 18 218 46 305 25 76 78 194 90 198 5 2 9 10 9 17 0 8 6 20 13 27 7
7 20 24 29 39 29 46 120 139 182 187 69 53 82 62 148 95 26 13 53 29 61 35 7
6 22 13 33 15 10 2 30 9 44 14 14 6 59 20 101 32 42 12 105 33 140 47 73 30
222 111 255 139 6 6 24 19 40 30 110 78 244 218 336 350 133 192 222 415 255
640 9 66 9 305 -1 375 -26 187 -94 384 -184 535 -20 33 -40 62 -44 63 -4 2 -8
8 -8 13 0 18 -85 124 -165 205 -77 78 -176 164 -189 164 -3 0 -15 8 -26 18
-48 41 -236 139 -320 167 -131 43 -168 52 -235 61 -21 3 -42 7 -45 9 -4 2 -56
7 -116 11 -60 3 -112 8 -115 10 -3 2 -8 2 -10 0z"/>
<path d="M4965 3370 c-54 -8 -102 -16 -150 -25 -34 -7 -155 -45 -170 -54 -5
-3 -17 -6 -25 -8 -45 -7 -256 -123 -327 -180 -24 -19 -43 -32 -43 -29 0 8
-108 -92 -150 -138 -19 -22 -44 -49 -55 -60 -81 -84 -212 -302 -250 -416 -1
-3 -7 -18 -14 -35 -7 -16 -14 -37 -16 -45 -2 -8 -13 -50 -25 -93 -12 -43 -19
-81 -16 -84 3 -3 1 -14 -4 -23 -20 -37 -29 -254 -16 -388 12 -128 55 -304 100
-402 11 -25 21 -47 21 -50 1 -3 19 -39 40 -80 22 -41 42 -79 44 -85 2 -5 7
-12 10 -15 4 -3 29 -36 55 -75 90 -129 257 -281 431 -393 39 -25 201 -100 260
-120 164 -57 284 -76 470 -77 151 0 238 9 340 37 22 6 47 12 55 13 8 2 15 4
15 5 0 1 8 3 18 5 10 2 26 7 35 11 9 4 20 8 24 8 3 1 10 4 14 9 4 4 13 7 21 7
7 0 53 19 101 42 295 140 540 385 680 678 37 78 63 140 69 165 1 6 14 50 27
99 14 49 23 93 20 98 -3 4 -2 8 3 8 4 0 9 10 9 23 1 12 5 65 9 117 10 114 10
111 1 230 -6 93 -10 124 -20 158 -3 9 -7 29 -10 43 -8 48 -39 154 -47 164 -5
5 -9 15 -9 23 0 43 -144 306 -197 360 -7 7 -13 17 -13 21 0 5 -12 21 -27 38
-16 16 -44 47 -64 69 -196 214 -481 370 -784 429 -22 5 -47 10 -55 12 -30 8
-336 10 -385 3z"/>
</g>
</svg>
